<?xml version="1.0" encoding="UTF-8" standalone="no"?>
<svg width="120px" height="120px" viewBox="0 0 120 120" version="1.1" xmlns="http://www.w3.org/2000/svg" xmlns:xlink="http://www.w3.org/1999/xlink">
    <!-- Generator: Sketch 50.2 (55047) - http://www.bohemiancoding.com/sketch -->
    <title>account@2x</title>
    <desc>Created with Sketch.</desc>
    <defs></defs>
    <g id="-译泰后台管理系统" stroke="none" stroke-width="1" fill="none" fill-rule="evenodd">
        <g id="00登录界面默认-copy" transform="translate(-884.000000, -342.000000)">
            <g id="账号icon" transform="translate(896.000000, 342.000000)">
                <rect id="Path" fill="#D8D8D8" opacity="0" x="0" y="0" width="96" height="120"></rect>
                <path d="M48,48 C57.9411255,48 66,39.9411255 66,30 C66,20.0588745 57.9411255,12 48,12 C38.0588745,12 30,20.0588745 30,30 C30,39.9411255 38.0588745,48 48,48 Z M48,60 C31.4314575,60 18,46.5685425 18,30 C18,13.4314575 31.4314575,0 48,0 C64.5685425,0 78,13.4314575 78,30 C78,46.5685425 64.5685425,60 48,60 Z" id="Oval" fill="#555555" fill-rule="nonzero"></path>
                <path d="M12,108 L84,108 L84,90 C84,83.372583 78.627417,78 72,78 L24,78 C17.372583,78 12,83.372583 12,90 L12,108 Z M24,66 L72,66 C85.254834,66 96,76.745166 96,90 L96,120 L0,120 L0,90 C-1.623249e-15,76.745166 10.745166,66 24,66 Z" id="Rectangle-8" fill="#555555" fill-rule="nonzero"></path>
            </g>
        </g>
    </g>
</svg>