<?xml version="1.0" encoding="UTF-8" standalone="no"?>
<svg width="120px" height="120px" viewBox="0 0 120 120" version="1.1" xmlns="http://www.w3.org/2000/svg" xmlns:xlink="http://www.w3.org/1999/xlink">
    <!-- Generator: Sketch 50.2 (55047) - http://www.bohemiancoding.com/sketch -->
    <title>close@2x</title>
    <desc>Created with Sketch.</desc>
    <defs></defs>
    <g id="-译泰后台管理系统" stroke="none" stroke-width="1" fill="none" fill-rule="evenodd">
        <g id="00登录界面默认-copy" transform="translate(-914.000000, -1171.000000)">
            <g id="Group-4" transform="translate(914.000000, 1171.000000)">
                <rect id="Rectangle-19" fill="#D8D8D8" opacity="0" x="0" y="0" width="120" height="120"></rect>
                <path d="M60,51.054265 L109.201543,1.85272238 C111.671839,-0.617574128 115.676981,-0.617574128 118.147278,1.85272238 C120.617574,4.3230189 120.617574,8.32816089 118.147278,10.7984574 L68.945735,60 L118.147278,109.201543 C120.617574,111.671839 120.617574,115.676981 118.147278,118.147278 C115.676981,120.617574 111.671839,120.617574 109.201543,118.147278 L60,68.945735 L10.7984574,118.147278 C8.32816089,120.617574 4.3230189,120.617574 1.85272238,118.147278 C-0.617574128,115.676981 -0.617574128,111.671839 1.85272238,109.201543 L51.054265,60 L1.85272238,10.7984574 C-0.617574128,8.32816089 -0.617574128,4.3230189 1.85272238,1.85272238 C4.3230189,-0.617574128 8.32816089,-0.617574128 10.7984574,1.85272238 L60,51.054265 Z" id="Combined-Shape" fill="#555555"></path>
            </g>
        </g>
    </g>
</svg>