<?xml version="1.0" encoding="UTF-8" standalone="no"?>
<svg width="120px" height="120px" viewBox="0 0 120 120" version="1.1" xmlns="http://www.w3.org/2000/svg" xmlns:xlink="http://www.w3.org/1999/xlink">
    <!-- Generator: Sketch 50.2 (55047) - http://www.bohemiancoding.com/sketch -->
    <title>code@2x</title>
    <desc>Created with Sketch.</desc>
    <defs></defs>
    <g id="-译泰后台管理系统" stroke="none" stroke-width="1" fill="none" fill-rule="evenodd">
        <g id="00登录界面默认-copy" transform="translate(-719.000000, -566.000000)" fill="#555555" fill-rule="nonzero">
            <g id="猿类专区" transform="translate(722.000000, 587.000000)">
                <g>
                    <path d="M57.2808624,4.9767242 C57.8027104,1.86425562 60.748906,-0.235857367 63.8613746,0.285990565 C66.9738432,0.807838497 69.0739562,3.75403415 68.5521082,6.86650273 L57.0551703,75.4379313 C56.5333223,78.5503999 53.5871267,80.6505129 50.4746581,80.1286649 C47.3621895,79.606817 45.2620765,76.6606214 45.7839245,73.5481528 L57.2808624,4.9767242 Z" id="Path-5"></path>
                    <path d="M32.8010059,59.0028199 C35.0325733,61.2343873 35.0325733,64.8524728 32.8010059,67.0840402 C30.5694385,69.3156076 26.9513529,69.3156076 24.7197856,67.0840402 L1.80158488,44.1658396 C-0.429982502,41.9342722 -0.429982502,38.3161866 1.80158488,36.0846192 L24.6459304,13.2402736 C26.8774978,11.0087063 30.4955834,11.0087063 32.7271508,13.2402736 C34.9587182,15.471841 34.9587182,19.0899266 32.7271508,21.321494 L13.9234154,40.1252294 L32.8010059,59.0028199 Z" id="Path-6"></path>
                    <path d="M112.673097,59.0076503 C114.904664,61.2392177 114.904664,64.8573033 112.673097,67.0888707 C110.441529,69.3204381 106.823444,69.3204381 104.591876,67.0888707 L81.6736755,44.17067 C79.4421082,41.9391026 79.4421082,38.321017 81.6736755,36.0894497 L104.518021,13.2451041 C106.749588,11.0135367 110.367674,11.0135367 112.599241,13.2451041 C114.830809,15.4766715 114.830809,19.0947571 112.599241,21.3263245 L93.7955061,40.1300598 L112.673097,59.0076503 Z" id="Path-6" transform="translate(97.173386, 40.166987) scale(-1, 1) translate(-97.173386, -40.166987) "></path>
                </g>
            </g>
        </g>
    </g>
</svg>