<?xml version="1.0" encoding="UTF-8" standalone="no"?>
<svg width="120px" height="120px" viewBox="0 0 120 120" version="1.1" xmlns="http://www.w3.org/2000/svg" xmlns:xlink="http://www.w3.org/1999/xlink">
    <!-- Generator: Sketch 50.2 (55047) - http://www.bohemiancoding.com/sketch -->
    <title>code_normal@2x</title>
    <desc>Created with Sketch.</desc>
    <defs></defs>
    <g id="-译泰后台管理系统" stroke="none" stroke-width="1" fill="none" fill-rule="evenodd">
        <g id="00登录界面默认-copy" transform="translate(-719.000000, -796.000000)">
            <g id="猿类专区" transform="translate(719.000000, 793.000000)">
                <g>
                    <rect id="Rectangle-18" fill="#D8D8D8" opacity="0" x="0" y="0" width="120" height="120"></rect>
                    <path d="M60.2808624,28.9767242 C60.8027104,25.8642556 63.748906,23.7641426 66.8613746,24.2859906 C69.9738432,24.8078385 72.0739562,27.7540341 71.5521082,30.8665027 L60.0551703,99.4379313 C59.5333223,102.5504 56.5871267,104.650513 53.4746581,104.128665 C50.3621895,103.606817 48.2620765,100.660621 48.7839245,97.5481528 L60.2808624,28.9767242 Z" id="Path-5" fill="#5F9CFF" fill-rule="nonzero"></path>
                    <path d="M35.8010059,83.0028199 C38.0325733,85.2343873 38.0325733,88.8524728 35.8010059,91.0840402 C33.5694385,93.3156076 29.9513529,93.3156076 27.7197856,91.0840402 L4.80158488,68.1658396 C2.5700175,65.9342722 2.5700175,62.3161866 4.80158488,60.0846192 L27.6459304,37.2402736 C29.8774978,35.0087063 33.4955834,35.0087063 35.7271508,37.2402736 C37.9587182,39.471841 37.9587182,43.0899266 35.7271508,45.321494 L16.9234154,64.1252294 L35.8010059,83.0028199 Z" id="Path-6" fill="#DAE3F2" fill-rule="nonzero"></path>
                    <path d="M115.673097,83.0076503 C117.904664,85.2392177 117.904664,88.8573033 115.673097,91.0888707 C113.441529,93.3204381 109.823444,93.3204381 107.591876,91.0888707 L84.6736755,68.17067 C82.4421082,65.9391026 82.4421082,62.321017 84.6736755,60.0894497 L107.518021,37.2451041 C109.749588,35.0135367 113.367674,35.0135367 115.599241,37.2451041 C117.830809,39.4766715 117.830809,43.0947571 115.599241,45.3263245 L96.7955061,64.1300598 L115.673097,83.0076503 Z" id="Path-6" fill="#DAE3F2" fill-rule="nonzero" transform="translate(100.173386, 64.166987) scale(-1, 1) translate(-100.173386, -64.166987) "></path>
                </g>
            </g>
        </g>
    </g>
</svg>