<?xml version="1.0" encoding="UTF-8" standalone="no"?>
<svg width="120px" height="120px" viewBox="0 0 120 120" version="1.1" xmlns="http://www.w3.org/2000/svg" xmlns:xlink="http://www.w3.org/1999/xlink">
    <!-- Generator: Sketch 50.2 (55047) - http://www.bohemiancoding.com/sketch -->
    <title>concentt_white</title>
    <desc>Created with Sketch.</desc>
    <defs></defs>
    <g id="-译泰后台管理系统" stroke="none" stroke-width="1" fill="none" fill-rule="evenodd">
        <g id="图标" transform="translate(-419.000000, -128.000000)">
            <g id="icon" transform="translate(419.000000, 128.000000)">
                <circle id="Oval" fill="#FFFFFF" opacity="0.298081342" cx="60" cy="60" r="60"></circle>
                <g transform="translate(27.000000, 27.000000)">
                    <rect id="Rectangle-6" fill="#D8D8D8" opacity="0" x="0" y="0" width="66" height="66"></rect>
                    <path d="M10.6011543,34.0205067 L17.6433755,37.9166368 C18.6098862,38.4513617 18.9599177,39.6683537 18.4251927,40.6348645 C17.8904678,41.6013752 16.6734758,41.9514067 15.7069651,41.4166817 L5.43623613,35.73437 C4.04692898,34.9657316 4.06418907,32.9624872 5.46653426,32.2179019 L54.2095121,6.33746587 C55.6545819,5.57019564 57.3593613,6.76815624 57.1271784,8.38773068 L50.295153,56.0440148 C50.103122,57.3835128 48.6640734,58.1496628 47.4455622,57.5611379 L34.6643497,51.3879799 C33.6697168,50.9075852 33.2528443,49.7118391 33.733239,48.7172061 C34.2136336,47.7225732 35.4093798,47.3057007 36.4040128,47.7860953 L46.7235774,52.7703097 L52.6091312,11.7160681 L10.6011543,34.0205067 Z" id="Path-14" fill="#FFFFFF" fill-rule="nonzero"></path>
                    <path d="M27.5269448,44.7093868 L27.5269448,58.2702174 C27.5269448,59.3747869 26.6315143,60.2702174 25.5269448,60.2702174 C24.4223753,60.2702174 23.5269448,59.3747869 23.5269448,58.2702174 L23.5269448,43.9722877 C23.5269448,43.4965295 23.6965426,43.036353 24.0052872,42.6743824 L52.5457605,9.21367702 C53.2625738,8.37328875 54.5249351,8.27311145 55.3653234,8.98992476 C56.2057117,9.70673807 56.305889,10.9690994 55.5890757,11.8094877 L27.5269448,44.7093868 Z" id="Path-15" fill="#FFFFFF" fill-rule="nonzero"></path>
                </g>
            </g>
        </g>
    </g>
</svg>