<?xml version="1.0" encoding="UTF-8" standalone="no"?>
<svg width="120px" height="120px" viewBox="0 0 120 120" version="1.1" xmlns="http://www.w3.org/2000/svg" xmlns:xlink="http://www.w3.org/1999/xlink">
    <!-- Generator: Sketch 50.2 (55047) - http://www.bohemiancoding.com/sketch -->
    <title>evaluationt_white</title>
    <desc>Created with Sketch.</desc>
    <defs></defs>
    <g id="-译泰后台管理系统" stroke="none" stroke-width="1" fill="none" fill-rule="evenodd">
        <g id="图标" transform="translate(-239.000000, -128.000000)">
            <g id="icon-" transform="translate(239.000000, 128.000000)">
                <circle id="Oval-Copy" fill="#FFFFFF" opacity="0.298540901" cx="60" cy="60" r="60"></circle>
                <g id="Group" transform="translate(27.000000, 27.000000)">
                    <rect id="Rectangle-5" fill="#D8D8D8" opacity="0" x="0" y="0" width="66" height="66"></rect>
                    <rect id="Rectangle-25" fill="#FFFFFF" x="9" y="57" width="48" height="4"></rect>
                    <rect id="Rectangle-25-Copy" fill="#FFFFFF" x="43" y="48" width="14" height="4"></rect>
                    <path d="M31.8905996,17.6641006 C30.9715422,17.0513957 30.7231945,15.809657 31.3358994,14.8905996 C31.9486043,13.9715422 33.190343,13.7231945 34.1094004,14.3358994 L46.1094004,22.3358994 C47.0284578,22.9486043 47.2768055,24.190343 46.6641006,25.1094004 C46.0513957,26.0284578 44.809657,26.2768055 43.8905996,25.6641006 L31.8905996,17.6641006 Z" id="Path-10" fill="#FFFFFF" fill-rule="nonzero"></path>
                    <path d="M26.5890466,9.29355111 L26.5890466,43.9802934 L32.2075415,51.041684 L37.5890466,44.0019932 L37.5890466,9.29355111 L26.5890466,9.29355111 Z M24.5890466,5.29355111 L39.5890466,5.29355111 C40.6936161,5.29355111 41.5890466,6.18898161 41.5890466,7.29355111 L41.5890466,44.6788814 C41.5890466,45.117909 41.4445884,45.5447393 41.177957,45.893527 L33.8280044,55.5081967 C33.0372697,56.5425778 31.4847085,56.5576422 30.6740517,55.5387991 L23.0240043,45.9241294 C22.7423754,45.570175 22.5890466,45.1312071 22.5890466,44.6788814 L22.5890466,7.29355111 C22.5890466,6.18898161 23.4844771,5.29355111 24.5890466,5.29355111 Z" id="Rectangle-26" fill="#FFFFFF" fill-rule="nonzero" transform="translate(32.089047, 30.793552) rotate(33.000000) translate(-32.089047, -30.793552) "></path>
                </g>
            </g>
        </g>
    </g>
</svg>