<?xml version="1.0" encoding="UTF-8" standalone="no"?>
<svg width="120px" height="120px" viewBox="0 0 120 120" version="1.1" xmlns="http://www.w3.org/2000/svg" xmlns:xlink="http://www.w3.org/1999/xlink">
    <!-- Generator: Sketch 50.2 (55047) - http://www.bohemiancoding.com/sketch -->
    <title>journal @2x</title>
    <desc>Created with Sketch.</desc>
    <defs></defs>
    <g id="-译泰后台管理系统" stroke="none" stroke-width="1" fill="none" fill-rule="evenodd">
        <g id="00登录界面默认-copy" transform="translate(-970.000000, -571.000000)" fill="#555555">
            <g id="日志管理" transform="translate(988.000000, 577.000000)">
                <g id="日志管理icon">
                    <path d="M12,30 L12,96 L72,96 L72,30 L12,30 Z M0,18 L84,18 L84,108 L0,108 L0,18 Z" id="Rectangle-20" fill-rule="nonzero"></path>
                    <rect id="Rectangle-21" x="24" y="48" width="36" height="12"></rect>
                    <rect id="Rectangle-21-Copy" x="24" y="66" width="36" height="12"></rect>
                    <path d="M66,24 L54,24 C54,17.372583 48.627417,12 42,12 C35.372583,12 30,17.372583 30,24 L18,24 C18,10.745166 28.745166,0 42,0 C55.254834,0 66,10.745166 66,24 Z" id="Oval-5" fill-rule="nonzero"></path>
                </g>
            </g>
        </g>
    </g>
</svg>