<?xml version="1.0" encoding="UTF-8" standalone="no"?>
<svg width="120px" height="120px" viewBox="0 0 120 120" version="1.1" xmlns="http://www.w3.org/2000/svg" xmlns:xlink="http://www.w3.org/1999/xlink">
    <!-- Generator: Sketch 50.2 (55047) - http://www.bohemiancoding.com/sketch -->
    <title>journal_normal@2x</title>
    <desc>Created with Sketch.</desc>
    <defs></defs>
    <g id="-译泰后台管理系统" stroke="none" stroke-width="1" fill="none" fill-rule="evenodd">
        <g id="00登录界面默认-copy" transform="translate(-970.000000, -801.000000)">
            <g id="日志管理" transform="translate(970.000000, 801.000000)">
                <g id="日志管理icon">
                    <rect id="Rectangle-9" fill="#D8D8D8" opacity="0" x="0" y="0" width="120" height="120"></rect>
                    <path d="M30,36 L30,102 L90,102 L90,36 L30,36 Z M18,24 L102,24 L102,114 L18,114 L18,24 Z" id="Rectangle-20" fill="#DAE3F2" fill-rule="nonzero"></path>
                    <rect id="Rectangle-21" fill="#5F9CFF" x="42" y="54" width="36" height="12"></rect>
                    <rect id="Rectangle-21-Copy" fill="#DAE3F2" x="42" y="72" width="36" height="12"></rect>
                    <path d="M84,30 L72,30 C72,23.372583 66.627417,18 60,18 C53.372583,18 48,23.372583 48,30 L36,30 C36,16.745166 46.745166,6 60,6 C73.254834,6 84,16.745166 84,30 Z" id="Oval-5" fill="#DAE3F2" fill-rule="nonzero"></path>
                </g>
            </g>
        </g>
    </g>
</svg>