<?xml version="1.0" encoding="UTF-8" standalone="no"?>
<svg width="120px" height="120px" viewBox="0 0 120 120" version="1.1" xmlns="http://www.w3.org/2000/svg" xmlns:xlink="http://www.w3.org/1999/xlink">
    <!-- Generator: Sketch 50.2 (55047) - http://www.bohemiancoding.com/sketch -->
    <title>jurisdiction_normal@2x</title>
    <desc>Created with Sketch.</desc>
    <defs></defs>
    <g id="-译泰后台管理系统" stroke="none" stroke-width="1" fill="none" fill-rule="evenodd">
        <g id="00登录界面默认-copy" transform="translate(-471.000000, -799.000000)">
            <g id="权限管理" transform="translate(471.000000, 799.000000)">
                <g id="权限管理icon">
                    <rect id="Rectangle-15" fill="#D8D8D8" opacity="0" x="0" y="0" width="120" height="120"></rect>
                    <path d="M57.0795848,3.97060762 L60.2856981,1.63436335 L63.5987567,3.81629882 C70.3292211,8.24889142 75.8502364,11.4054235 80.0991836,13.273436 C84.40786,15.1677079 91.7145882,17.6364079 101.916689,20.6262766 L106.030831,21.8319834 L106.030831,72.8776119 L105.558937,73.9666107 C102.633854,80.7168885 97.7641645,87.4664715 90.9928016,94.2603831 C84.4303165,100.844721 75.3548148,108.197521 63.7427507,116.362242 L60.4985077,118.643347 L57.2231182,116.407195 C45.9103592,108.683822 36.7230303,101.316068 29.6518847,94.2760285 C22.3289073,86.9852652 17.4082227,80.1840565 14.9393832,73.738008 L14.5607465,72.7494017 L14.5607465,21.6631145 L18.8806648,20.5701124 C26.1441296,18.7323502 33.2489362,16.2984192 40.1978802,13.2669108 C47.0734586,10.2674086 52.7032962,7.15954019 57.0795848,3.97060762 Z M44.7754092,23.7597049 C38.6371044,26.4375682 32.380982,28.6863968 26.0085628,30.5054247 L26.0085628,70.5701259 C27.9674937,75.0866746 31.8607405,80.3210806 37.7288497,86.1633757 C43.5801752,91.9889611 51.1416332,98.1699532 60.4065576,104.686236 C69.9554616,97.8074309 77.4538457,91.6277885 82.8845288,86.1790212 C88.3289646,80.7164554 92.2167642,75.4633729 94.5830144,70.4565684 L94.5830144,30.38774 C86.0478246,27.8060273 79.7063458,25.6060434 75.4918559,23.7531797 C71.3216232,21.9197734 66.3507726,19.1622496 60.541299,15.4730468 C56.0735107,18.3653018 50.8195269,21.1229311 44.7754092,23.7597049 Z" id="Path-4" fill="#DAE3F2" fill-rule="nonzero"></path>
                    <rect id="Rectangle-16" fill="#DAE3F2" x="54" y="54" width="11" height="34"></rect>
                    <rect id="Rectangle-17" fill="#DAE3F2" x="60" y="66" width="17" height="11"></rect>
                    <path d="M60,60 C50.6111593,60 43,52.3888407 43,43 C43,33.6111593 50.6111593,26 60,26 C69.3888407,26 77,33.6111593 77,43 C77,52.3888407 69.3888407,60 60,60 Z M60,48.6666667 C63.1296136,48.6666667 65.6666667,46.1296136 65.6666667,43 C65.6666667,39.8703864 63.1296136,37.3333333 60,37.3333333 C56.8703864,37.3333333 54.3333333,39.8703864 54.3333333,43 C54.3333333,46.1296136 56.8703864,48.6666667 60,48.6666667 Z" id="Oval-4" fill="#5F9CFF" fill-rule="nonzero"></path>
                </g>
            </g>
        </g>
    </g>
</svg>