<?xml version="1.0" encoding="UTF-8" standalone="no"?>
<svg width="120px" height="120px" viewBox="0 0 120 120" version="1.1" xmlns="http://www.w3.org/2000/svg" xmlns:xlink="http://www.w3.org/1999/xlink">
    <!-- Generator: Sketch 50.2 (55047) - http://www.bohemiancoding.com/sketch -->
    <title>jurisdiction@2x</title>
    <desc>Created with Sketch.</desc>
    <defs></defs>
    <g id="-译泰后台管理系统" stroke="none" stroke-width="1" fill="none" fill-rule="evenodd">
        <g id="00登录界面默认-copy" transform="translate(-471.000000, -569.000000)" fill="#555555">
            <g id="权限管理" transform="translate(485.000000, 570.000000)">
                <g id="权限管理icon">
                    <path d="M43.0795848,2.97060762 L46.2856981,0.634363351 L49.5987567,2.81629882 C56.3292211,7.24889142 61.8502364,10.4054235 66.0991836,12.273436 C70.40786,14.1677079 77.7145882,16.6364079 87.9166892,19.6262766 L92.0308307,20.8319834 L92.0308307,71.8776119 L91.5589372,72.9666107 C88.633854,79.7168885 83.7641645,86.4664715 76.9928016,93.2603831 C70.4303165,99.8447212 61.3548148,107.197521 49.7427507,115.362242 L46.4985077,117.643347 L43.2231182,115.407195 C31.9103592,107.683822 22.7230303,100.316068 15.6518847,93.2760285 C8.32890733,85.9852652 3.40822267,79.1840565 0.939383188,72.738008 L0.560746515,71.7494017 L0.560746515,20.6631145 L4.88066482,19.5701124 C12.1441296,17.7323502 19.2489362,15.2984192 26.1978802,12.2669108 C33.0734586,9.26740859 38.7032962,6.15954019 43.0795848,2.97060762 Z M30.7754092,22.7597049 C24.6371044,25.4375682 18.380982,27.6863968 12.0085628,29.5054247 L12.0085628,69.5701259 C13.9674937,74.0866746 17.8607405,79.3210806 23.7288497,85.1633757 C29.5801752,90.9889611 37.1416332,97.1699532 46.4065576,103.686236 C55.9554616,96.8074309 63.4538457,90.6277885 68.8845288,85.1790212 C74.3289646,79.7164554 78.2167642,74.4633729 80.5830144,69.4565684 L80.5830144,29.38774 C72.0478246,26.8060273 65.7063458,24.6060434 61.4918559,22.7531797 C57.3216232,20.9197734 52.3507726,18.1622496 46.541299,14.4730468 C42.0735107,17.3653018 36.8195269,20.1229311 30.7754092,22.7597049 Z" id="Path-4" fill-rule="nonzero"></path>
                    <rect id="Rectangle-16" x="40" y="53" width="11" height="34"></rect>
                    <rect id="Rectangle-17" x="46" y="65" width="17" height="11"></rect>
                    <path d="M46,59 C36.6111593,59 29,51.3888407 29,42 C29,32.6111593 36.6111593,25 46,25 C55.3888407,25 63,32.6111593 63,42 C63,51.3888407 55.3888407,59 46,59 Z M46,47.6666667 C49.1296136,47.6666667 51.6666667,45.1296136 51.6666667,42 C51.6666667,38.8703864 49.1296136,36.3333333 46,36.3333333 C42.8703864,36.3333333 40.3333333,38.8703864 40.3333333,42 C40.3333333,45.1296136 42.8703864,47.6666667 46,47.6666667 Z" id="Oval-4" fill-rule="nonzero"></path>
                </g>
            </g>
        </g>
    </g>
</svg>