<?xml version="1.0" encoding="UTF-8" standalone="no"?>
<svg width="120px" height="120px" viewBox="0 0 120 120" version="1.1" xmlns="http://www.w3.org/2000/svg" xmlns:xlink="http://www.w3.org/1999/xlink">
    <!-- Generator: Sketch 50.2 (55047) - http://www.bohemiancoding.com/sketch -->
    <title>more application</title>
    <desc>Created with Sketch.</desc>
    <defs></defs>
    <g id="-译泰后台管理系统" stroke="none" stroke-width="1" fill="none" fill-rule="evenodd">
        <g id="图标" transform="translate(-296.000000, -1466.000000)">
            <g id="更多应用" transform="translate(296.000000, 1466.000000)">
                <rect id="Rectangle-11" fill="#D8D8D8" opacity="0" x="0" y="0" width="120" height="120"></rect>
                <path d="M8.57142857,8.57142857 L8.57142857,47.1428571 L47.1428571,47.1428571 L47.1428571,8.57142857 L8.57142857,8.57142857 Z M8.57142857,0 L47.1428571,0 C51.8767264,-8.6959768e-16 55.7142857,3.83755929 55.7142857,8.57142857 L55.7142857,47.1428571 C55.7142857,51.8767264 51.8767264,55.7142857 47.1428571,55.7142857 L8.57142857,55.7142857 C3.83755929,55.7142857 5.79731787e-16,51.8767264 0,47.1428571 L0,8.57142857 C-5.79731787e-16,3.83755929 3.83755929,8.6959768e-16 8.57142857,0 Z" id="Rectangle-27" fill="#555555" fill-rule="nonzero"></path>
                <path d="M8.57142857,72.8571429 L8.57142857,111.428571 L47.1428571,111.428571 L47.1428571,72.8571429 L8.57142857,72.8571429 Z M8.57142857,64.2857143 L47.1428571,64.2857143 C51.8767264,64.2857143 55.7142857,68.1232736 55.7142857,72.8571429 L55.7142857,111.428571 C55.7142857,116.162441 51.8767264,120 47.1428571,120 L8.57142857,120 C3.83755929,120 5.79731787e-16,116.162441 0,111.428571 L0,72.8571429 C-5.79731787e-16,68.1232736 3.83755929,64.2857143 8.57142857,64.2857143 Z" id="Rectangle-27-Copy-2" fill="#555555" fill-rule="nonzero"></path>
                <path d="M72.8571429,8.57142857 L72.8571429,47.1428571 L111.428571,47.1428571 L111.428571,8.57142857 L72.8571429,8.57142857 Z M72.8571429,0 L111.428571,0 C116.162441,-8.6959768e-16 120,3.83755929 120,8.57142857 L120,47.1428571 C120,51.8767264 116.162441,55.7142857 111.428571,55.7142857 L72.8571429,55.7142857 C68.1232736,55.7142857 64.2857143,51.8767264 64.2857143,47.1428571 L64.2857143,8.57142857 C64.2857143,3.83755929 68.1232736,8.6959768e-16 72.8571429,0 Z" id="Rectangle-27-Copy" fill="#555555" fill-rule="nonzero"></path>
                <path d="M72.8571429,72.8571429 L72.8571429,111.428571 L111.428571,111.428571 L111.428571,72.8571429 L72.8571429,72.8571429 Z M72.8571429,64.2857143 L111.428571,64.2857143 C116.162441,64.2857143 120,68.1232736 120,72.8571429 L120,111.428571 C120,116.162441 116.162441,120 111.428571,120 L72.8571429,120 C68.1232736,120 64.2857143,116.162441 64.2857143,111.428571 L64.2857143,72.8571429 C64.2857143,68.1232736 68.1232736,64.2857143 72.8571429,64.2857143 Z" id="Rectangle-27-Copy-3" fill="#555555" fill-rule="nonzero"></path>
            </g>
        </g>
    </g>
</svg>