<?xml version="1.0" encoding="UTF-8" standalone="no"?>
<svg width="120px" height="117px" viewBox="0 0 120 117" version="1.1" xmlns="http://www.w3.org/2000/svg" xmlns:xlink="http://www.w3.org/1999/xlink">
    <!-- Generator: Sketch 50.2 (55047) - http://www.bohemiancoding.com/sketch -->
    <title>mustfill</title>
    <desc>Created with Sketch.</desc>
    <defs></defs>
    <g id="-译泰后台管理系统" stroke="none" stroke-width="1" fill="none" fill-rule="evenodd">
        <g id="图标" transform="translate(-587.000000, -1460.000000)" fill="#555555">
            <path d="M638.544203,1509.89292 L638.544203,1461 C638.544203,1460.44772 638.991918,1460 639.544203,1460 L654.47985,1460 C655.032134,1460 655.47985,1460.44772 655.47985,1461 L655.47985,1509.89292 L701.096385,1495.07121 C701.621639,1494.90055 702.185793,1495.188 702.356459,1495.71325 L706.971827,1509.9179 C707.142493,1510.44315 706.855042,1511.00731 706.329788,1511.17797 L659.829853,1526.28672 L688.905822,1566.30635 C689.230446,1566.75316 689.131398,1567.37853 688.68459,1567.70315 L676.601398,1576.48211 C676.15459,1576.80673 675.52922,1576.70768 675.204596,1576.26088 L647.012026,1537.45713 L618.819457,1576.26088 C618.494832,1576.70768 617.869462,1576.80673 617.422655,1576.48211 L605.339463,1567.70315 C604.892655,1567.37853 604.793606,1566.75316 605.118231,1566.30635 L634.194199,1526.28672 L587.694265,1511.17797 C587.169011,1511.00731 586.88156,1510.44315 587.052225,1509.9179 L591.667594,1495.71325 C591.838259,1495.188 592.402413,1494.90055 592.927667,1495.07121 L638.544203,1509.89292 Z" id="Rectangle-5-Copy"></path>
        </g>
    </g>
</svg>