<?xml version="1.0" encoding="UTF-8" standalone="no"?>
<svg width="120px" height="120px" viewBox="0 0 120 120" version="1.1" xmlns="http://www.w3.org/2000/svg" xmlns:xlink="http://www.w3.org/1999/xlink">
    <!-- Generator: Sketch 50.2 (55047) - http://www.bohemiancoding.com/sketch -->
    <title>onetarget@2x</title>
    <desc>Created with Sketch.</desc>
    <defs></defs>
    <g id="-译泰后台管理系统" stroke="none" stroke-width="1" fill="none" fill-rule="evenodd">
        <g id="00登录界面默认-copy" transform="translate(-59.000000, -308.000000)">
            <g id="icon" transform="translate(59.000000, 308.000000)">
                <circle id="Oval-Copy-2" fill="#8174F9" opacity="0.0970818015" cx="60" cy="60" r="60"></circle>
                <g transform="translate(27.000000, 27.000000)">
                    <rect id="Rectangle-4" fill="#D8D8D8" opacity="0" x="1" y="0" width="66" height="66"></rect>
                    <path d="M33,12 C35.209139,12 37,10.209139 37,8 C37,5.790861 35.209139,4 33,4 C30.790861,4 29,5.790861 29,8 C29,10.209139 30.790861,12 33,12 Z M33,16 C28.581722,16 25,12.418278 25,8 C25,3.581722 28.581722,0 33,0 C37.418278,0 41,3.581722 41,8 C41,12.418278 37.418278,16 33,16 Z M53.7846097,48 C52.6800402,49.9131705 53.3355408,52.3595321 55.2487113,53.4641016 C57.1618818,54.5686711 59.6082434,53.9131705 60.7128129,52 C61.8173824,50.0868295 61.1618818,47.6404679 59.2487113,46.5358984 C57.3355408,45.4313289 54.8891792,46.0868295 53.7846097,48 Z M50.3205081,46 C52.5296471,42.173659 57.4223703,40.8626578 61.2487113,43.0717968 C65.0750523,45.2809358 66.3860535,50.173659 64.1769145,54 C61.9677755,57.826341 57.0750523,59.1373422 53.2487113,56.9282032 C49.4223703,54.7190642 48.1113691,49.826341 50.3205081,46 Z M12.2153903,48 C11.1108208,46.0868295 8.66445919,45.4313289 6.75128869,46.5358984 C4.8381182,47.6404679 4.18261758,50.0868295 5.28718708,52 C6.39175658,53.9131705 8.8381182,54.5686711 10.7512887,53.4641016 C12.6644592,52.3595321 13.3199598,49.9131705 12.2153903,48 Z M15.6794919,46 C17.8886309,49.826341 16.5776297,54.7190642 12.7512887,56.9282032 C8.92494771,59.1373422 4.03222446,57.826341 1.82308546,54 C-0.386053535,50.173659 0.924947706,45.2809358 4.75128869,43.0717968 C8.57762968,40.8626578 13.4703529,42.173659 15.6794919,46 Z" id="Oval-2" fill="#8174F9" fill-rule="nonzero"></path>
                    <path d="M18.3017488,9.84164686 C19.2642497,9.29973746 20.4838152,9.64069422 21.0257247,10.6031951 C21.5676341,11.565696 21.2266773,12.7852615 20.2641764,13.3271709 C12.1355112,17.9037902 7,26.501302 7,36 C7,37.1045695 6.1045695,38 5,38 C3.8954305,38 3,37.1045695 3,36 C3,25.0421001 8.92672504,15.1199937 18.3017488,9.84164686 Z M16.5372511,61.0832007 C15.6143364,60.4763217 15.3581388,59.2361788 15.9650179,58.3132641 C16.5718969,57.3903493 17.8120398,57.1341518 18.7349545,57.7410308 C22.9386732,60.5052609 27.855761,62 33,62 C38.031351,62 42.8461301,60.5703578 46.9907373,57.9189501 C47.9212008,57.3237095 49.1580284,57.5954615 49.753269,58.525925 C50.3485095,59.4563886 50.0767576,60.6932162 49.146294,61.2884567 C44.3628225,64.3485618 38.8010742,66 33,66 C27.0686518,66 21.3887043,64.2733602 16.5372511,61.0832007 Z M63,36 C63,37.1045695 62.1045695,38 61,38 C59.8954305,38 59,37.1045695 59,36 C59,26.2541139 53.59205,17.4678031 45.1280497,12.9955819 C44.1514287,12.4795535 43.7780447,11.2695221 44.2940731,10.2929012 C44.8101016,9.31628028 46.020133,8.94289627 46.9967539,9.4589247 C56.7592202,14.6172312 63,24.7566428 63,36 Z" id="Oval-6" fill="#8174F9" fill-rule="nonzero"></path>
                </g>
            </g>
        </g>
    </g>
</svg>