<?xml version="1.0" encoding="UTF-8" standalone="no"?>
<svg width="120px" height="120px" viewBox="0 0 120 120" version="1.1" xmlns="http://www.w3.org/2000/svg" xmlns:xlink="http://www.w3.org/1999/xlink">
    <!-- Generator: Sketch 50.2 (55047) - http://www.bohemiancoding.com/sketch -->
    <title>organization@2x</title>
    <desc>Created with Sketch.</desc>
    <defs></defs>
    <g id="-译泰后台管理系统" stroke="none" stroke-width="1" fill="none" fill-rule="evenodd">
        <g id="00登录界面默认-copy" transform="translate(-50.000000, -556.000000)" fill="#555555">
            <g id="机构管理" transform="translate(50.000000, 559.000000)">
                <g id="机构管理icon">
                    <rect id="Rectangle-13" x="54" y="42" width="12" height="18"></rect>
                    <path d="M24,90 L12,90 L12,66 C12,59.372583 17.372583,54 24,54 L96,54 C102.627417,54 108,59.372583 108,66 L108,90 L96,90 L96,66 L24,66 L24,90 Z" id="Rectangle-14" fill-rule="nonzero"></path>
                    <path d="M60,36 C66.627417,36 72,30.627417 72,24 C72,17.372583 66.627417,12 60,12 C53.372583,12 48,17.372583 48,24 C48,30.627417 53.372583,36 60,36 Z M60,48 C46.745166,48 36,37.254834 36,24 C36,10.745166 46.745166,0 60,0 C73.254834,0 84,10.745166 84,24 C84,37.254834 73.254834,48 60,48 Z" id="Oval-2" fill-rule="nonzero"></path>
                    <path d="M18,102 C21.3137085,102 24,99.3137085 24,96 C24,92.6862915 21.3137085,90 18,90 C14.6862915,90 12,92.6862915 12,96 C12,99.3137085 14.6862915,102 18,102 Z M18,114 C8.0588745,114 0,105.941125 0,96 C0,86.0588745 8.0588745,78 18,78 C27.9411255,78 36,86.0588745 36,96 C36,105.941125 27.9411255,114 18,114 Z" id="Oval-3" fill-rule="nonzero"></path>
                    <path d="M102,102 C105.313708,102 108,99.3137085 108,96 C108,92.6862915 105.313708,90 102,90 C98.6862915,90 96,92.6862915 96,96 C96,99.3137085 98.6862915,102 102,102 Z M102,114 C92.0588745,114 84,105.941125 84,96 C84,86.0588745 92.0588745,78 102,78 C111.941125,78 120,86.0588745 120,96 C120,105.941125 111.941125,114 102,114 Z" id="Oval-3-Copy" fill-rule="nonzero"></path>
                    <path d="M60,102 C63.3137085,102 66,99.3137085 66,96 C66,92.6862915 63.3137085,90 60,90 C56.6862915,90 54,92.6862915 54,96 C54,99.3137085 56.6862915,102 60,102 Z M60,114 C50.0588745,114 42,105.941125 42,96 C42,86.0588745 50.0588745,78 60,78 C69.9411255,78 78,86.0588745 78,96 C78,105.941125 69.9411255,114 60,114 Z" id="Oval-3-Copy-2" fill-rule="nonzero"></path>
                </g>
            </g>
        </g>
    </g>
</svg>