<?xml version="1.0" encoding="UTF-8" standalone="no"?>
<svg width="120px" height="120px" viewBox="0 0 120 120" version="1.1" xmlns="http://www.w3.org/2000/svg" xmlns:xlink="http://www.w3.org/1999/xlink">
    <!-- Generator: Sketch 50.2 (55047) - http://www.bohemiancoding.com/sketch -->
    <title>organization_normal@2x</title>
    <desc>Created with Sketch.</desc>
    <defs></defs>
    <g id="-译泰后台管理系统" stroke="none" stroke-width="1" fill="none" fill-rule="evenodd">
        <g id="00登录界面默认-copy" transform="translate(-50.000000, -786.000000)">
            <g id="机构管理" transform="translate(50.000000, 783.000000)">
                <g id="机构管理icon">
                    <rect id="Rectangle-12" fill="#D8D8D8" opacity="0" x="0" y="0" width="120" height="120"></rect>
                    <rect id="Rectangle-13" fill="#DAE3F2" x="54" y="48" width="12" height="18"></rect>
                    <path d="M24,96 L12,96 L12,72 C12,65.372583 17.372583,60 24,60 L96,60 C102.627417,60 108,65.372583 108,72 L108,96 L96,96 L96,72 L24,72 L24,96 Z" id="Rectangle-14" fill="#DAE3F2" fill-rule="nonzero"></path>
                    <path d="M60,42 C66.627417,42 72,36.627417 72,30 C72,23.372583 66.627417,18 60,18 C53.372583,18 48,23.372583 48,30 C48,36.627417 53.372583,42 60,42 Z M60,54 C46.745166,54 36,43.254834 36,30 C36,16.745166 46.745166,6 60,6 C73.254834,6 84,16.745166 84,30 C84,43.254834 73.254834,54 60,54 Z" id="Oval-2" fill="#3A85FF" fill-rule="nonzero"></path>
                    <path d="M18,108 C21.3137085,108 24,105.313708 24,102 C24,98.6862915 21.3137085,96 18,96 C14.6862915,96 12,98.6862915 12,102 C12,105.313708 14.6862915,108 18,108 Z M18,120 C8.0588745,120 0,111.941125 0,102 C0,92.0588745 8.0588745,84 18,84 C27.9411255,84 36,92.0588745 36,102 C36,111.941125 27.9411255,120 18,120 Z" id="Oval-3" fill="#DAE3F2" fill-rule="nonzero"></path>
                    <path d="M102,108 C105.313708,108 108,105.313708 108,102 C108,98.6862915 105.313708,96 102,96 C98.6862915,96 96,98.6862915 96,102 C96,105.313708 98.6862915,108 102,108 Z M102,120 C92.0588745,120 84,111.941125 84,102 C84,92.0588745 92.0588745,84 102,84 C111.941125,84 120,92.0588745 120,102 C120,111.941125 111.941125,120 102,120 Z" id="Oval-3-Copy" fill="#DAE3F2" fill-rule="nonzero"></path>
                    <path d="M60,108 C63.3137085,108 66,105.313708 66,102 C66,98.6862915 63.3137085,96 60,96 C56.6862915,96 54,98.6862915 54,102 C54,105.313708 56.6862915,108 60,108 Z M60,120 C50.0588745,120 42,111.941125 42,102 C42,92.0588745 50.0588745,84 60,84 C69.9411255,84 78,92.0588745 78,102 C78,111.941125 69.9411255,120 60,120 Z" id="Oval-3-Copy-2" fill="#DAE3F2" fill-rule="nonzero"></path>
                </g>
            </g>
        </g>
    </g>
</svg>