<?xml version="1.0" encoding="UTF-8" standalone="no"?>
<svg width="120px" height="120px" viewBox="0 0 120 120" version="1.1" xmlns="http://www.w3.org/2000/svg" xmlns:xlink="http://www.w3.org/1999/xlink">
    <!-- Generator: Sketch 50.2 (55047) - http://www.bohemiancoding.com/sketch -->
    <title>overall quality_normal@2x</title>
    <desc>Created with Sketch.</desc>
    <defs></defs>
    <g id="-译泰后台管理系统" stroke="none" stroke-width="1" fill="none" fill-rule="evenodd">
        <g id="00登录界面默认-copy" transform="translate(-1260.000000, -792.000000)">
            <g id="综评专区" transform="translate(1260.000000, 792.000000)">
                <g id="综评专区icon">
                    <rect id="Rectangle-22" fill="#D8D8D8" opacity="0" x="0" y="0" width="120" height="120"></rect>
                    <rect id="Rectangle-23" fill="#5F9CFF" x="54" y="84" width="12" height="30"></rect>
                    <path d="M49.0453788,100.035584 C51.7236399,101.986886 52.3129562,105.739889 50.3616537,108.41815 C48.4103511,111.096411 44.6573483,111.685728 41.9790872,109.734425 C36.3367377,105.623574 32.1591992,103.043775 29.7021378,102.066296 C27.2123824,101.075811 22.0837246,99.9657608 14.5832567,98.8639188 C11.3047355,98.3822938 9.03740311,95.3340931 9.51902806,92.0555719 C10.000653,88.7770506 13.0488538,86.5097182 16.327375,86.9913432 C24.696047,88.2207271 30.5438596,89.4864318 34.1379054,90.9162307 C37.7646452,92.3590361 42.648581,95.3750642 49.0453788,100.035584 Z" id="Path-8" fill="#DAE3F2" fill-rule="nonzero"></path>
                    <path d="M79.4150087,109.459951 C77.0775962,111.808816 73.2786176,111.8181 70.9297527,109.480688 C68.5808878,107.143275 68.5716038,103.344297 70.9090164,100.995432 C74.6844455,97.2015046 78.7150712,94.2103423 83.0003688,92.0482768 C87.2279176,89.9153474 92.257487,88.3098794 98.0928269,87.1977293 C101.347943,86.5773408 104.489661,88.7132097 105.110049,91.968326 C105.730438,95.2234423 103.594569,98.3651597 100.339452,98.9855482 C95.5388022,99.9004981 91.5596453,101.170668 88.4057316,102.761915 C85.3095669,104.324027 82.3128341,106.547928 79.4150087,109.459951 Z" id="Path-9" fill="#DAE3F2" fill-rule="nonzero"></path>
                    <path d="M55.9151924,7.90759852 C58.2606079,5.5184883 62.1075247,5.51105846 64.4621512,7.89109115 L80.0982743,23.6959266 L100.323058,18.4166442 C103.99349,17.4585503 107.620765,20.1044753 107.829384,23.8921508 C108.880168,42.970212 106.243993,58.0996438 99.6954841,69.2546686 C92.7505283,81.0850188 79.6207242,87.9798661 60.9035716,90.200097 L60.1968059,90.2418688 C42.2043754,90.2418688 28.9095205,83.132891 21.2250986,69.0987362 C14.0771981,56.0444373 11.0570092,40.9197674 12.1134608,23.8514561 C12.3458747,20.0965159 15.9367654,17.47932 19.5825547,18.4076585 L40.4026452,23.7091421 L55.9151924,7.90759852 Z M46.5481523,34.5785169 C45.0513144,36.1032407 42.8565704,36.7169112 40.7859847,36.1896716 L23.9208516,31.8952509 C24.1247303,43.7371329 26.7444625,54.1928222 31.7505535,63.3355081 C37.1787779,73.2491414 46.2470791,78.1578579 59.8451752,78.2407996 C74.9506971,76.3879917 84.5900351,71.2826289 89.3468974,63.1795757 C93.754268,55.6718623 96.0357465,45.2616817 96.0533518,31.9332519 L79.78155,36.1806859 C77.7097357,36.7214923 75.5067346,36.1172085 74.0007993,34.5950243 L60.213315,20.6587742 L46.5481523,34.5785169 Z" id="Path-7" fill="#DAE3F2" fill-rule="nonzero"></path>
                </g>
            </g>
        </g>
    </g>
</svg>