<?xml version="1.0" encoding="UTF-8" standalone="no"?>
<svg width="120px" height="120px" viewBox="0 0 120 120" version="1.1" xmlns="http://www.w3.org/2000/svg" xmlns:xlink="http://www.w3.org/1999/xlink">
    <!-- Generator: Sketch 50.2 (55047) - http://www.bohemiancoding.com/sketch -->
    <title>overall quality@2x</title>
    <desc>Created with Sketch.</desc>
    <defs></defs>
    <g id="-译泰后台管理系统" stroke="none" stroke-width="1" fill="none" fill-rule="evenodd">
        <g id="00登录界面默认-copy" transform="translate(-1260.000000, -562.000000)" fill="#555555">
            <g id="综评专区" transform="translate(1269.000000, 568.000000)">
                <g id="综评专区icon">
                    <rect id="Rectangle-23" x="45" y="78" width="12" height="30"></rect>
                    <path d="M40.0453788,94.0355837 C42.7236399,95.9868862 43.3129562,99.7398891 41.3616537,102.41815 C39.4103511,105.096411 35.6573483,105.685728 32.9790872,103.734425 C27.3367377,99.6235744 23.1591992,97.0437753 20.7021378,96.0662965 C18.2123824,95.0758112 13.0837246,93.9657608 5.58325675,92.8639188 C2.30473552,92.3822938 0.0374031098,89.3340931 0.519028062,86.0555719 C1.00065301,82.7770506 4.04885376,80.5097182 7.32737499,80.9913432 C15.696047,82.2207271 21.5438596,83.4864318 25.1379054,84.9162307 C28.7646452,86.3590361 33.648581,89.3750642 40.0453788,94.0355837 Z" id="Path-8" fill-rule="nonzero"></path>
                    <path d="M70.4150087,103.459951 C68.0775962,105.808816 64.2786176,105.8181 61.9297527,103.480688 C59.5808878,101.143275 59.5716038,97.3442966 61.9090164,94.9954316 C65.6844455,91.2015046 69.7150712,88.2103423 74.0003688,86.0482768 C78.2279176,83.9153474 83.257487,82.3098794 89.0928269,81.1977293 C92.3479432,80.5773408 95.4896606,82.7132097 96.1100491,85.968326 C96.7304376,89.2234423 94.5945687,92.3651597 91.3394524,92.9855482 C86.5388022,93.9004981 82.5596453,95.1706683 79.4057316,96.7619155 C76.3095669,98.3240266 73.3128341,100.547928 70.4150087,103.459951 Z" id="Path-9" fill-rule="nonzero"></path>
                    <path d="M46.9151924,1.90759852 C49.2606079,-0.481511705 53.1075247,-0.48894154 55.4621512,1.89109115 L71.0982743,17.6959266 L91.3230585,12.4166442 C94.9934895,11.4585503 98.6207654,14.1044753 98.8293836,17.8921508 C99.8801683,36.970212 97.2439931,52.0996438 90.6954841,63.2546686 C83.7505283,75.0850188 70.6207242,81.9798661 51.9035716,84.200097 L51.1968059,84.2418688 C33.2043754,84.2418688 19.9095205,77.132891 12.2250986,63.0987362 C5.07719814,50.0444373 2.05700918,34.9197674 3.11346077,17.8514561 C3.34587465,14.0965159 6.93676539,11.47932 10.5825547,12.4076585 L31.4026452,17.7091421 L46.9151924,1.90759852 Z M37.5481523,28.5785169 C36.0513144,30.1032407 33.8565704,30.7169112 31.7859847,30.1896716 L14.9208516,25.8952509 C15.1247303,37.7371329 17.7444625,48.1928222 22.7505535,57.3355081 C28.1787779,67.2491414 37.2470791,72.1578579 50.8451752,72.2407996 C65.9506971,70.3879917 75.5900351,65.2826289 80.3468974,57.1795757 C84.754268,49.6718623 87.0357465,39.2616817 87.0533518,25.9332519 L70.78155,30.1806859 C68.7097357,30.7214923 66.5067346,30.1172085 65.0007993,28.5950243 L51.213315,14.6587742 L37.5481523,28.5785169 Z" id="Path-7" fill-rule="nonzero"></path>
                </g>
            </g>
        </g>
    </g>
</svg>