<?xml version="1.0" encoding="UTF-8" standalone="no"?>
<svg width="120px" height="120px" viewBox="0 0 120 120" version="1.1" xmlns="http://www.w3.org/2000/svg" xmlns:xlink="http://www.w3.org/1999/xlink">
    <!-- Generator: Sketch 50.2 (55047) - http://www.bohemiancoding.com/sketch -->
    <title>password@2x</title>
    <desc>Created with Sketch.</desc>
    <defs></defs>
    <g id="-译泰后台管理系统" stroke="none" stroke-width="1" fill="none" fill-rule="evenodd">
        <g id="00登录界面默认-copy" transform="translate(-1054.000000, -346.000000)">
            <g id="密码icon" transform="translate(1066.000000, 346.000000)">
                <rect id="Rectangle-3" fill="#D8D8D8" opacity="0" x="0" y="0" width="96" height="120"></rect>
                <path d="M30,42.0586438 L66,42.0586438 L66,30 C66,20.0588745 57.9411255,12 48,12 C38.0588745,12 30,20.0588745 30,30 L30,42.0586438 Z M78,30 L78,54.0586438 L18,54.0586438 L18,30 C18,13.4314575 31.4314575,0 48,0 C64.5685425,0 78,13.4314575 78,30 Z" id="Oval-Copy" fill="#555555" fill-rule="nonzero"></path>
                <path d="M24,54 C17.372583,54 12,59.372583 12,66 L12,96 C12,102.627417 17.372583,108 24,108 L72,108 C78.627417,108 84,102.627417 84,96 L84,66 C84,59.372583 78.627417,54 72,54 L24,54 Z M24,42 L72,42 C85.254834,42 96,52.745166 96,66 L96,96 C96,109.254834 85.254834,120 72,120 L24,120 C10.745166,120 1.623249e-15,109.254834 0,96 L0,66 C-1.623249e-15,52.745166 10.745166,42 24,42 Z" id="Rectangle-2" fill="#555555" fill-rule="nonzero"></path>
                <rect id="Rectangle-34" fill="#555555" x="42" y="72" width="12" height="18"></rect>
            </g>
        </g>
    </g>
</svg>