<?xml version="1.0" encoding="UTF-8" standalone="no"?>
<svg width="120px" height="120px" viewBox="0 0 120 120" version="1.1" xmlns="http://www.w3.org/2000/svg" xmlns:xlink="http://www.w3.org/1999/xlink">
    <!-- Generator: Sketch 50.2 (55047) - http://www.bohemiancoding.com/sketch -->
    <title>personalcenter@2x</title>
    <desc>Created with Sketch.</desc>
    <defs></defs>
    <g id="-译泰后台管理系统" stroke="none" stroke-width="1" fill="none" fill-rule="evenodd">
        <g id="00登录界面默认-copy" transform="translate(-1503.000000, -359.000000)">
            <g id="个人中心" transform="translate(1510.000000, 359.000000)">
                <g id="账号icon">
                    <rect id="Path" fill="#D8D8D8" opacity="0" x="0" y="0" width="105" height="120"></rect>
                    <path d="M52.5,51 C64.0979797,51 73.5,41.5979797 73.5,30 C73.5,18.4020203 64.0979797,9 52.5,9 C40.9020203,9 31.5,18.4020203 31.5,30 C31.5,41.5979797 40.9020203,51 52.5,51 Z M52.5,60 C35.9314575,60 22.5,46.5685425 22.5,30 C22.5,13.4314575 35.9314575,0 52.5,0 C69.0685425,0 82.5,13.4314575 82.5,30 C82.5,46.5685425 69.0685425,60 52.5,60 Z" id="Oval" fill="#555555" fill-rule="nonzero"></path>
                    <path d="M9,111 L96,111 L96,97.5 C96,85.9020203 86.5979797,76.5 75,76.5 L30,76.5 C18.4020203,76.5 9,85.9020203 9,97.5 L9,111 Z M30,67.5 L75,67.5 C91.5685425,67.5 105,80.9314575 105,97.5 L105,120 L0,120 L0,97.5 C-2.02906125e-15,80.9314575 13.4314575,67.5 30,67.5 Z" id="Rectangle-8" fill="#555555" fill-rule="nonzero"></path>
                </g>
            </g>
        </g>
    </g>
</svg>