<?xml version="1.0" encoding="UTF-8" standalone="no"?>
<svg width="120px" height="120px" viewBox="0 0 120 120" version="1.1" xmlns="http://www.w3.org/2000/svg" xmlns:xlink="http://www.w3.org/1999/xlink">
    <!-- Generator: Sketch 50.2 (55047) - http://www.bohemiancoding.com/sketch -->
    <title>quit@2x</title>
    <desc>Created with Sketch.</desc>
    <defs></defs>
    <g id="-译泰后台管理系统" stroke="none" stroke-width="1" fill="none" fill-rule="evenodd">
        <g id="00登录界面默认-copy" transform="translate(-1723.000000, -359.000000)">
            <g id="退出登录" transform="translate(1729.000000, 359.000000)">
                <g id="退出登录icon">
                    <rect id="Rectangle-10" x="1" y="0" width="105" height="120"></rect>
                    <path d="M24.9166735,19.3206338 C26.9984292,17.9849484 29.7688126,18.5897578 31.104498,20.6715135 C32.4401834,22.7532692 31.835374,25.5236526 29.7536183,26.859338 C17.2042525,34.9111978 9.46134872,48.7677528 9.46134872,63.9543286 C9.46134872,88.2762041 29.1781245,107.99298 53.5,107.99298 C77.8218755,107.99298 97.5386513,88.2762041 97.5386513,63.9543286 C97.5386513,48.8359744 89.8656961,35.033536 77.4080969,26.9635957 C75.3321897,25.6188385 74.7394756,22.8458421 76.0842329,20.769935 C77.4289901,18.6940279 80.2019864,18.1013138 82.2778935,19.446071 C97.2580526,29.1501068 106.495665,45.7671175 106.495665,63.9543286 C106.495665,93.2230262 82.7686976,116.949994 53.5,116.949994 C24.2313024,116.949994 0.504334898,93.2230262 0.504334898,63.9543286 C0.504334898,45.6849436 9.82602848,29.0030161 24.9166735,19.3206338 Z" id="Oval-3" fill="#555555" fill-rule="nonzero"></path>
                    <rect id="Rectangle-38" fill="#555555" x="49.9669557" y="3.46931118" width="7.5708093" height="37.8540465"></rect>
                </g>
            </g>
        </g>
    </g>
</svg>