<?xml version="1.0" encoding="UTF-8" standalone="no"?>
<svg width="120px" height="120px" viewBox="0 0 120 120" version="1.1" xmlns="http://www.w3.org/2000/svg" xmlns:xlink="http://www.w3.org/1999/xlink">
    <!-- Generator: Sketch 50.2 (55047) - http://www.bohemiancoding.com/sketch -->
    <title>turn_left</title>
    <desc>Created with Sketch.</desc>
    <defs></defs>
    <g id="-译泰后台管理系统" stroke="none" stroke-width="1" fill="none" fill-rule="evenodd">
        <g id="图标" transform="translate(-1790.000000, -1463.000000)">
            <g id="左转" transform="translate(1790.000000, 1463.000000)">
                <g id="Group-4">
                    <rect id="Rectangle-34" fill="#D8D8D8" opacity="0" x="0" y="0" width="120" height="120"></rect>
                    <path d="M20.6106738,15.2401544 C31.157441,5.89839126 45.0298961,0.226980223 60.2269802,0.226980223 C93.2387075,0.226980223 120,26.9882727 120,60 C120,93.0117273 93.2387075,119.77302 60.2269802,119.77302 C35.1538784,119.77302 13.6864787,104.335173 4.81154401,82.446243 L15.9322305,77.9373261 C23.1843849,95.8238691 40.5953798,107.77302 60.2269802,107.77302 C86.6112905,107.77302 108,86.3843103 108,60 C108,33.6156897 86.6112905,12.2269802 60.2269802,12.2269802 C48.7614057,12.2269802 37.9600948,16.2716075 29.4364654,23.4703382 L39.4676607,32.8245791 L8.42738254,37.3642625 L10.7018214,6 L20.6106738,15.2401544 Z" id="Combined-Shape" fill="#555555"></path>
                </g>
            </g>
        </g>
    </g>
</svg>