<?xml version="1.0" encoding="UTF-8" standalone="no"?>
<svg width="120px" height="120px" viewBox="0 0 120 120" version="1.1" xmlns="http://www.w3.org/2000/svg" xmlns:xlink="http://www.w3.org/1999/xlink">
    <!-- Generator: Sketch 50.2 (55047) - http://www.bohemiancoding.com/sketch -->
    <title>user_normal@2x</title>
    <desc>Created with Sketch.</desc>
    <defs></defs>
    <g id="-译泰后台管理系统" stroke="none" stroke-width="1" fill="none" fill-rule="evenodd">
        <g id="00登录界面默认-copy" transform="translate(-250.000000, -794.000000)">
            <g id="用户管理" transform="translate(250.000000, 794.000000)">
                <g id="用户管理icon">
                    <rect id="Rectangle-7" fill="#D8D8D8" opacity="0" x="0" y="0" width="120" height="120"></rect>
                    <path d="M42,48 C48.627417,48 54,42.627417 54,36 C54,29.372583 48.627417,24 42,24 C35.372583,24 30,29.372583 30,36 C30,42.627417 35.372583,48 42,48 Z M42,60 C28.745166,60 18,49.254834 18,36 C18,22.745166 28.745166,12 42,12 C55.254834,12 66,22.745166 66,36 C66,49.254834 55.254834,60 42,60 Z" id="Oval" fill="#DAE3F2" fill-rule="nonzero"></path>
                    <path d="M12,96 L72,96 L72,90 C72,83.372583 66.627417,78 60,78 L24,78 C17.372583,78 12,83.372583 12,90 L12,96 Z M24,66 L60,66 C73.254834,66 84,76.745166 84,90 L84,108 L0,108 L0,90 C-1.623249e-15,76.745166 10.745166,66 24,66 Z" id="Rectangle-8" fill="#DAE3F2" fill-rule="nonzero"></path>
                    <path d="M113.070793,68.3143091 C118.176818,75.9719567 120.39296,87.2304923 120.055889,102.151405 C119.981049,105.464269 117.234774,108.089206 113.92191,108.014366 C110.609047,107.939527 107.98411,105.193251 108.058949,101.880388 C108.345532,89.1944506 106.575909,80.2043406 103.086747,74.9715475 C99.7049982,69.8998446 92.9560427,65.8198688 82.5955983,62.9824736 C77.5219067,61.5929514 76.5653496,54.8115784 81.0567231,52.072841 C87.1964302,48.3289872 90.042461,43.3706737 90.042461,36.5297408 C90.042461,29.9435508 87.4886991,25.9558983 81.8145921,23.521289 C78.7693673,22.2146636 77.359954,18.686792 78.6665794,15.6415672 C79.9732048,12.5963424 83.5010765,11.1869291 86.5463013,12.4935545 C96.6882133,16.8451807 102.042461,25.2057409 102.042461,36.5297408 C102.042461,43.6515548 99.9470721,49.8418436 95.8755149,54.9226577 C103.579459,58.2874188 109.341034,62.7206852 113.070793,68.3143091 Z" id="Path-3" fill="#5F9CFF" fill-rule="nonzero"></path>
                </g>
            </g>
        </g>
    </g>
</svg>