<?xml version="1.0" encoding="UTF-8" standalone="no"?>
<svg width="120px" height="120px" viewBox="0 0 120 120" version="1.1" xmlns="http://www.w3.org/2000/svg" xmlns:xlink="http://www.w3.org/1999/xlink">
    <!-- Generator: Sketch 50.2 (55047) - http://www.bohemiancoding.com/sketch -->
    <title>user@2x</title>
    <desc>Created with Sketch.</desc>
    <defs></defs>
    <g id="-译泰后台管理系统" stroke="none" stroke-width="1" fill="none" fill-rule="evenodd">
        <g id="00登录界面默认-copy" transform="translate(-250.000000, -564.000000)" fill="#555555" fill-rule="nonzero">
            <g id="用户管理" transform="translate(250.000000, 576.000000)">
                <g id="用户管理icon">
                    <path d="M42,36 C48.627417,36 54,30.627417 54,24 C54,17.372583 48.627417,12 42,12 C35.372583,12 30,17.372583 30,24 C30,30.627417 35.372583,36 42,36 Z M42,48 C28.745166,48 18,37.254834 18,24 C18,10.745166 28.745166,0 42,0 C55.254834,0 66,10.745166 66,24 C66,37.254834 55.254834,48 42,48 Z" id="Oval"></path>
                    <path d="M12,84 L72,84 L72,78 C72,71.372583 66.627417,66 60,66 L24,66 C17.372583,66 12,71.372583 12,78 L12,84 Z M24,54 L60,54 C73.254834,54 84,64.745166 84,78 L84,96 L0,96 L0,78 C-1.623249e-15,64.745166 10.745166,54 24,54 Z" id="Rectangle-8"></path>
                    <path d="M113.070793,56.3143091 C118.176818,63.9719567 120.39296,75.2304923 120.055889,90.1514055 C119.981049,93.4642688 117.234774,96.0892057 113.92191,96.0143663 C110.609047,95.9395268 107.98411,93.1932512 108.058949,89.8803879 C108.345532,77.1944506 106.575909,68.2043406 103.086747,62.9715475 C99.7049982,57.8998446 92.9560427,53.8198688 82.5955983,50.9824736 C77.5219067,49.5929514 76.5653496,42.8115784 81.0567231,40.072841 C87.1964302,36.3289872 90.042461,31.3706737 90.042461,24.5297408 C90.042461,17.9435508 87.4886991,13.9558983 81.8145921,11.521289 C78.7693673,10.2146636 77.359954,6.68679199 78.6665794,3.64156719 C79.9732048,0.596342399 83.5010765,-0.813070876 86.5463013,0.493554534 C96.6882133,4.84518071 102.042461,13.2057409 102.042461,24.5297408 C102.042461,31.6515548 99.9470721,37.8418436 95.8755149,42.9226577 C103.579459,46.2874188 109.341034,50.7206852 113.070793,56.3143091 Z" id="Path-3"></path>
                </g>
            </g>
        </g>
    </g>
</svg>