<?xml version="1.0" encoding="UTF-8" standalone="no"?>
<svg width="120px" height="120px" viewBox="0 0 120 120" version="1.1" xmlns="http://www.w3.org/2000/svg" xmlns:xlink="http://www.w3.org/1999/xlink">
    <!-- Generator: Sketch 50.2 (55047) - http://www.bohemiancoding.com/sketch -->
    <title>verification code@2x</title>
    <desc>Created with Sketch.</desc>
    <defs></defs>
    <g id="-译泰后台管理系统" stroke="none" stroke-width="1" fill="none" fill-rule="evenodd">
        <g id="00登录界面默认-copy" transform="translate(-1265.000000, -357.000000)">
            <g id="验证码icon" transform="translate(1276.000000, 357.000000)">
                <rect id="Rectangle-15" fill="#D8D8D8" opacity="0" x="0" y="0" width="96" height="120"></rect>
                <path d="M45.0274924,3.06085858 L48.2855346,0.686774497 L51.6522544,2.90405046 C58.4917312,7.40843713 64.1021696,10.6160951 68.4199364,12.5143635 C72.7983998,14.4393167 80.223474,16.9480018 90.5908169,19.986297 L94.7715946,21.2115325 L94.7715946,73.0839397 L94.2920579,74.1905768 C91.3195976,81.0501879 86.3710344,87.909093 79.4899967,94.8130446 C72.82122,101.504028 63.5987237,108.97592 51.7985807,117.272884 L48.5017911,119.590936 L45.1733506,117.318565 C33.6773605,109.470098 24.3412258,101.983009 17.1555498,94.8289434 C9.7139632,87.4200926 4.71357892,80.5087257 2.204752,73.9582715 L1.81998261,72.9536529 L1.81998261,21.0399284 L6.20987001,19.9292231 C13.5909801,18.061695 20.8108622,15.5883419 27.8723573,12.5077327 C34.8592984,9.45964793 40.5803217,6.30144183 45.0274924,3.06085858 Z M32.5240278,23.170477 C26.2863018,25.8917133 19.9288499,28.1769658 13.4532175,30.0254563 L13.4532175,70.7390797 C15.4438769,75.3287823 19.4001822,80.6479692 25.3633362,86.5848912 C31.3094348,92.5048326 38.9933647,98.7859374 48.4083517,105.407764 C58.1119179,98.4175434 65.7317523,92.1378102 71.2503954,86.60079 C76.7830139,81.0497479 80.7337837,75.7115819 83.1383596,70.6236829 L83.1383596,29.9058655 C74.4649266,27.2823371 68.0207358,25.0467204 63.7379844,23.1638462 C59.500207,21.3007444 54.4488443,18.4985574 48.5452755,14.7496011 C44.0051231,17.6887016 38.6660412,20.4909958 32.5240278,23.170477 Z" id="Path-4" fill="#555555" fill-rule="nonzero"></path>
                <polygon id="Path-6" fill="#555555" fill-rule="nonzero" points="64.4434745 42.5750484 72.2223202 51.225003 43.1932882 77.330615 26.1107496 61.3505376 34.057981 52.8550289 43.3483111 61.545786"></polygon>
            </g>
        </g>
    </g>
</svg>